<?xml version="1.0" encoding="iso-8859-1"?>
<!-- Generator: Adobe Illustrator 19.1.0, SVG Export Plug-In . SVG Version: 6.00 Build 0)  -->
<svg version="1.1" id="Capa_1" xmlns="http://www.w3.org/2000/svg" xmlns:xlink="http://www.w3.org/1999/xlink" x="0px" y="0px"
	 viewBox="0 0 512 512" style="enable-background:new 0 0 512 512;" xml:space="preserve">
<g>
	<g>
		<rect x="48" y="107.984" style="fill:#FFFFFF;" width="416" height="256"/>
	</g>
	<g>
		<rect x="48" y="107.984" style="fill:#FF4F19;" width="416" height="64"/>
	</g>
	<g>
		<path style="fill:#5C546A;" d="M459.133,75.984H52.852C32.531,75.984,16,92.477,16,112.75v291.234c0,4.422,3.578,8,8,8h464
			c4.422,0,8-3.578,8-8V112.75C496,92.477,479.461,75.984,459.133,75.984z M48,355.984v-240c0-4.418,3.582-8,8-8h400
			c4.418,0,8,3.582,8,8v240c0,4.418-3.582,8-8,8H56C51.582,363.984,48,360.402,48,355.984z"/>
	</g>
	<g>
		<path style="fill:#B9BBC1;" d="M504,395.984H8c-4.422,0-8,3.578-8,8l0,0c0,17.664,14.367,32.031,32.031,32.031h447.937
			c17.664,0,32.031-14.367,32.031-32.031l0,0C512,399.562,508.422,395.984,504,395.984z"/>
	</g>
	<g>
		<g>
			<path style="fill:#FFD200;" d="M144,147.984H88c-4.422,0-8-3.578-8-8c0-4.422,3.578-8,8-8h56c4.422,0,8,3.578,8,8
				C152,144.406,148.422,147.984,144,147.984z"/>
		</g>
	</g>
	<g>
		<g>
			<path style="fill:#FFFFFF;" d="M288,147.984h-8c-4.422,0-8-3.578-8-8c0-4.422,3.578-8,8-8h8c4.422,0,8,3.578,8,8
				C296,144.406,292.422,147.984,288,147.984z"/>
		</g>
	</g>
	<g>
		<g>
			<path style="fill:#FFFFFF;" d="M328,147.984h-8c-4.422,0-8-3.578-8-8c0-4.422,3.578-8,8-8h8c4.422,0,8,3.578,8,8
				C336,144.406,332.422,147.984,328,147.984z"/>
		</g>
	</g>
	<g>
		<g>
			<path style="fill:#FFFFFF;" d="M368,147.984h-8c-4.422,0-8-3.578-8-8c0-4.422,3.578-8,8-8h8c4.422,0,8,3.578,8,8
				C376,144.406,372.422,147.984,368,147.984z"/>
		</g>
	</g>
	<g>
		<g>
			<path style="fill:#FFFFFF;" d="M408,147.984h-8c-4.422,0-8-3.578-8-8c0-4.422,3.578-8,8-8h8c4.422,0,8,3.578,8,8
				C416,144.406,412.422,147.984,408,147.984z"/>
		</g>
	</g>
	<g>
		<path style="fill:#53DCFF;" d="M224,339.984H88c-4.418,0-8-3.582-8-8v-128c0-4.418,3.582-8,8-8h136c4.418,0,8,3.582,8,8v128
			C232,336.402,228.418,339.984,224,339.984z"/>
	</g>
	<g>
		<g>
			<path style="fill:#FF4F19;" d="M416,211.984H264c-4.422,0-8-3.578-8-8c0-4.422,3.578-8,8-8h152c4.422,0,8,3.578,8,8
				C424,208.406,420.422,211.984,416,211.984z"/>
		</g>
	</g>
	<g>
		<g>
			<path style="fill:#B9BBC1;" d="M328,275.984h-64c-4.422,0-8-3.578-8-8s3.578-8,8-8h64c4.422,0,8,3.578,8,8
				S332.422,275.984,328,275.984z"/>
		</g>
	</g>
	<g>
		<g>
			<path style="fill:#B9BBC1;" d="M328,307.984h-64c-4.422,0-8-3.578-8-8s3.578-8,8-8h64c4.422,0,8,3.578,8,8
				S332.422,307.984,328,307.984z"/>
		</g>
	</g>
	<g>
		<g>
			<path style="fill:#B9BBC1;" d="M328,339.984h-64c-4.422,0-8-3.578-8-8s3.578-8,8-8h64c4.422,0,8,3.578,8,8
				S332.422,339.984,328,339.984z"/>
		</g>
	</g>
	<g>
		<g>
			<path style="fill:#B9BBC1;" d="M424,275.984h-64c-4.422,0-8-3.578-8-8s3.578-8,8-8h64c4.422,0,8,3.578,8,8
				S428.422,275.984,424,275.984z"/>
		</g>
	</g>
	<g>
		<g>
			<path style="fill:#B9BBC1;" d="M424,307.984h-64c-4.422,0-8-3.578-8-8s3.578-8,8-8h64c4.422,0,8,3.578,8,8
				S428.422,307.984,424,307.984z"/>
		</g>
	</g>
	<g>
		<g>
			<path style="fill:#B9BBC1;" d="M424,339.984h-64c-4.422,0-8-3.578-8-8s3.578-8,8-8h64c4.422,0,8,3.578,8,8
				S428.422,339.984,424,339.984z"/>
		</g>
	</g>
	<g>
		<g>
			<path style="fill:#E9001E;" d="M368,243.984H264c-4.422,0-8-3.578-8-8c0-4.422,3.578-8,8-8h104c4.422,0,8,3.578,8,8
				C376,240.406,372.422,243.984,368,243.984z"/>
		</g>
	</g>
	<g>
		<path style="fill:#8B8996;" d="M224,411.984h64c8.836,0,16-7.164,16-16h-96C208,404.821,215.163,411.984,224,411.984z"/>
	</g>
</g>
<g>
</g>
<g>
</g>
<g>
</g>
<g>
</g>
<g>
</g>
<g>
</g>
<g>
</g>
<g>
</g>
<g>
</g>
<g>
</g>
<g>
</g>
<g>
</g>
<g>
</g>
<g>
</g>
<g>
</g>
</svg>
