<?xml version="1.0" encoding="iso-8859-1"?>
<!-- Generator: Adobe Illustrator 19.0.0, SVG Export Plug-In . SVG Version: 6.00 Build 0)  -->
<svg version="1.1" id="Capa_1" xmlns="http://www.w3.org/2000/svg" xmlns:xlink="http://www.w3.org/1999/xlink" x="0px" y="0px"
	 viewBox="0 0 512 512" style="enable-background:new 0 0 512 512;" xml:space="preserve">
<circle style="fill:#FF9518;" cx="257.06" cy="267" r="245"/>
<rect x="162.51" y="388.5" style="fill:#445EA0;" width="94.35" height="40.586"/>
<path style="fill:#293D7C;" d="M300.979,449.3c0,2.75-2.25,5-5,5H123.386c-2.75,0-5-2.25-5-5v-16.209c0-2.75,2.25-5,5-5H295.98
	c2.75,0,5,2.25,5,5L300.979,449.3L300.979,449.3z"/>
<path style="fill:#1A2B63;" d="M138.228,449.3v-16.209c0-2.75,2.25-5,5-5h-19.842c-2.75,0-5,2.25-5,5V449.3c0,2.75,2.25,5,5,5
	h19.842C140.478,454.3,138.228,452.05,138.228,449.3z"/>
<path style="fill:#293D7C;" d="M350.927,330.888H9.94v48.617c0,5.5,4.5,10,10,10h330.986v-58.617H350.927z"/>
<path style="fill:#1A2B63;" d="M29.783,379.505v-48.617H9.94v48.617c0,5.5,4.5,10,10,10h19.842
	C34.283,389.505,29.783,385.005,29.783,379.505z"/>
<path style="fill:#445EA0;" d="M399.822,105.259h-39.976v109.255c-5.18,0.02-9.389,4.252-9.389,9.454v88.713H57.407V105.259H19.543
	c-5.281,0-9.603,4.32-9.603,9.602v217.027h340.986v-107.92c0-5.214,4.242-9.456,9.456-9.456h49.041V114.86
	C409.424,109.579,405.103,105.259,399.822,105.259z"/>
<g>
	<path style="fill:#293D7C;" d="M57.407,124.464h-23.26c-2.75,0-5,2.25-5,5v178.217c0,2.75,2.25,5,5,5h23.261L57.407,124.464
		L57.407,124.464z"/>
	<path style="fill:#293D7C;" d="M385.219,124.464h-25.372v90.075c0.179-0.01,0.355-0.027,0.536-0.027h29.836v-85.048
		C390.219,126.714,387.969,124.464,385.219,124.464z"/>
</g>
<path style="fill:#1A2B63;" d="M48.989,307.681V129.464c0-2.75,2.25-5,5-5H34.147c-2.75,0-5,2.25-5,5v178.217c0,2.75,2.25,5,5,5
	h19.842C51.239,312.681,48.989,310.431,48.989,307.681z"/>
<circle style="fill:#445EA0;" cx="209.68" cy="361.01" r="12.153"/>
<path style="fill:#C3DDF4;" d="M167.197,65.513c0-2.447,2.004-4.451,4.453-4.451h114.807V5.266c0-2.897-2.369-5.266-5.265-5.266
	H62.172c-2.896,0-5.265,2.369-5.265,5.266v307.415h110.29V65.513z"/>
<path style="fill:#AEC1ED;" d="M82.014,0H62.172c-2.896,0-5.265,2.369-5.265,5.266v307.415H76.75V5.266
	C76.75,2.369,79.119,0,82.014,0z"/>
<path style="fill:#FFFFFF;" d="M350.927,223.968c0-5.202,4.223-9.435,9.42-9.454V64.513c0-2.447-2.004-4.451-4.452-4.451H170.65
	c-2.449,0-4.453,2.004-4.453,4.451v248.168h184.729v-88.713H350.927z"/>
<path style="fill:#D9EAFC;" d="M190.493,60.062H170.65c-2.449,0-4.453,2.004-4.453,4.451v248.168h19.842V64.513
	C186.04,62.065,188.044,60.062,190.493,60.062z"/>
<path style="fill:#0F9390;" d="M208.817,160.439c-2.162,0-4.219-0.933-5.643-2.56l-11.999-13.707
	c-2.729-3.117-2.414-7.855,0.703-10.584c3.115-2.728,7.854-2.413,10.583,0.703l6.356,7.261l10.106-11.545
	c2.728-3.117,7.466-3.432,10.583-0.703c3.117,2.729,3.432,7.467,0.703,10.584l-15.749,17.991
	C213.037,159.505,210.98,160.439,208.817,160.439z"/>
<g>
	<path style="fill:#52BBEF;" d="M329.727,141.591H249.4c-4.142,0-7.5-3.357-7.5-7.5s3.358-7.5,7.5-7.5h80.327
		c4.142,0,7.5,3.357,7.5,7.5C337.227,138.233,333.869,141.591,329.727,141.591z"/>
	<path style="fill:#52BBEF;" d="M329.727,162.153H249.4c-4.142,0-7.5-3.357-7.5-7.5s3.358-7.5,7.5-7.5h80.327
		c4.142,0,7.5,3.357,7.5,7.5S333.869,162.153,329.727,162.153z"/>
</g>
<path style="fill:#0F9390;" d="M208.817,222.124c-2.162,0-4.219-0.933-5.643-2.559l-11.999-13.706
	c-2.729-3.117-2.414-7.855,0.703-10.583c3.117-2.729,7.855-2.413,10.583,0.702l6.356,7.261l10.106-11.545
	c2.728-3.116,7.466-3.431,10.583-0.703c3.117,2.729,3.432,7.467,0.703,10.584l-15.749,17.99
	C213.037,221.191,210.98,222.124,208.817,222.124z"/>
<g>
	<path style="fill:#52BBEF;" d="M329.727,203.276H249.4c-4.142,0-7.5-3.357-7.5-7.5s3.358-7.5,7.5-7.5h80.327
		c4.142,0,7.5,3.357,7.5,7.5S333.869,203.276,329.727,203.276z"/>
	<path style="fill:#52BBEF;" d="M329.727,223.839H249.4c-4.142,0-7.5-3.357-7.5-7.5s3.358-7.5,7.5-7.5h80.327
		c4.142,0,7.5,3.357,7.5,7.5C337.227,220.481,333.869,223.839,329.727,223.839z"/>
</g>
<path style="fill:#0F9390;" d="M208.817,283.81L208.817,283.81c-2.162,0-4.219-0.934-5.643-2.56l-11.999-13.707
	c-2.729-3.117-2.414-7.855,0.703-10.584c3.115-2.728,7.854-2.412,10.583,0.703l6.356,7.261l10.106-11.544
	c2.728-3.117,7.466-3.431,10.583-0.703c3.117,2.729,3.432,7.467,0.703,10.584l-15.749,17.99
	C213.037,282.876,210.98,283.81,208.817,283.81z"/>
<g>
	<path style="fill:#52BBEF;" d="M329.727,264.962H249.4c-4.142,0-7.5-3.357-7.5-7.5s3.358-7.5,7.5-7.5h80.327
		c4.142,0,7.5,3.357,7.5,7.5C337.227,261.604,333.869,264.962,329.727,264.962z"/>
	<path style="fill:#52BBEF;" d="M300.2,285.524h-50.801c-4.142,0-7.5-3.357-7.5-7.5s3.358-7.5,7.5-7.5H300.2
		c4.142,0,7.5,3.357,7.5,7.5S304.342,285.524,300.2,285.524z"/>
</g>
<g>
	<path style="fill:#445EA0;" d="M144.543,77.86H86.022c-4.142,0-7.5-3.357-7.5-7.5s3.358-7.5,7.5-7.5h58.522
		c4.142,0,7.5,3.357,7.5,7.5C152.043,74.503,148.685,77.86,144.543,77.86z"/>
	<path style="fill:#445EA0;" d="M144.543,98.703H86.022c-4.142,0-7.5-3.357-7.5-7.5s3.358-7.5,7.5-7.5h58.522
		c4.142,0,7.5,3.357,7.5,7.5S148.685,98.703,144.543,98.703z"/>
	<path style="fill:#445EA0;" d="M144.543,119.546H86.022c-4.142,0-7.5-3.357-7.5-7.5s3.358-7.5,7.5-7.5h58.522
		c4.142,0,7.5,3.357,7.5,7.5S148.685,119.546,144.543,119.546z"/>
	<path style="fill:#445EA0;" d="M144.543,159.038H86.022c-4.142,0-7.5-3.357-7.5-7.5s3.358-7.5,7.5-7.5h58.522
		c4.142,0,7.5,3.357,7.5,7.5C152.043,155.681,148.685,159.038,144.543,159.038z"/>
	<path style="fill:#445EA0;" d="M144.543,179.882H86.022c-4.142,0-7.5-3.357-7.5-7.5s3.358-7.5,7.5-7.5h58.522
		c4.142,0,7.5,3.357,7.5,7.5C152.043,176.524,148.685,179.882,144.543,179.882z"/>
	<path style="fill:#445EA0;" d="M144.543,200.726H86.022c-4.142,0-7.5-3.357-7.5-7.5s3.358-7.5,7.5-7.5h58.522
		c4.142,0,7.5,3.357,7.5,7.5C152.043,197.368,148.685,200.726,144.543,200.726z"/>
	<path style="fill:#445EA0;" d="M144.543,240.218H86.022c-4.142,0-7.5-3.357-7.5-7.5s3.358-7.5,7.5-7.5h58.522
		c4.142,0,7.5,3.357,7.5,7.5C152.043,236.86,148.685,240.218,144.543,240.218z"/>
	<path style="fill:#445EA0;" d="M144.543,261.06H86.022c-4.142,0-7.5-3.357-7.5-7.5s3.358-7.5,7.5-7.5h58.522
		c4.142,0,7.5,3.357,7.5,7.5C152.043,257.703,148.685,261.06,144.543,261.06z"/>
	<path style="fill:#445EA0;" d="M144.543,281.903H86.022c-4.142,0-7.5-3.357-7.5-7.5s3.358-7.5,7.5-7.5h58.522
		c4.142,0,7.5,3.357,7.5,7.5C152.043,278.546,148.685,281.903,144.543,281.903z"/>
	<path style="fill:#445EA0;" d="M303.698,97.499h-80.853c-4.142,0-7.5-3.357-7.5-7.5s3.358-7.5,7.5-7.5h80.853
		c4.142,0,7.5,3.357,7.5,7.5S307.84,97.499,303.698,97.499z"/>
</g>
<path style="fill:#AEC1ED;" d="M474.868,443.844c0,5.751-4.705,10.456-10.456,10.456H360.383c-5.751,0-10.456-4.705-10.456-10.456
	V223.968c0-5.751,4.705-10.456,10.456-10.456h104.029c5.751,0,10.456,4.705,10.456,10.456L474.868,443.844L474.868,443.844z"/>
<path style="fill:#85A0DD;" d="M369.769,443.844V223.968c0-5.751,4.705-10.456,10.456-10.456h-19.842
	c-5.751,0-10.456,4.705-10.456,10.456v219.876c0,5.751,4.705,10.456,10.456,10.456h19.842
	C374.474,454.3,369.769,449.595,369.769,443.844z"/>
<path style="fill:#445EA0;" d="M391.485,413.15v11.786c0,2.75,2.25,5,5,5h31.824c2.75,0,5-2.25,5-5V413.15H391.485z"/>
<rect x="349.93" y="247.39" style="fill:#91E0E8;" width="124.94" height="166.76"/>
<rect x="349.93" y="247.39" style="fill:#5DC1D8;" width="19.842" height="166.76"/>
<path style="fill:#445EA0;" d="M430.172,237.729h-35.55c-4.142,0-7.5-3.357-7.5-7.5s3.358-7.5,7.5-7.5h35.55
	c4.142,0,7.5,3.357,7.5,7.5S434.314,237.729,430.172,237.729z"/>
<g>
	<path style="fill:#EEF6FF;" d="M459.009,302.603c0,2.75-2.25,5-5,5h-83.058c-2.75,0-5-2.25-5-5v-34.958c0-2.75,2.25-5,5-5h83.058
		c2.75,0,5,2.25,5,5L459.009,302.603L459.009,302.603z"/>
	<path style="fill:#EEF6FF;" d="M434.814,332.336h-61.188c-4.142,0-7.5-3.357-7.5-7.5s3.358-7.5,7.5-7.5h61.188
		c4.142,0,7.5,3.357,7.5,7.5C442.314,328.978,438.956,332.336,434.814,332.336z"/>
	<path style="fill:#EEF6FF;" d="M434.814,354.451h-61.188c-4.142,0-7.5-3.357-7.5-7.5s3.358-7.5,7.5-7.5h61.188
		c4.142,0,7.5,3.357,7.5,7.5S438.956,354.451,434.814,354.451z"/>
	<path style="fill:#EEF6FF;" d="M434.814,376.565h-61.188c-4.142,0-7.5-3.357-7.5-7.5c0-4.142,3.358-7.5,7.5-7.5h61.188
		c4.142,0,7.5,3.358,7.5,7.5C442.314,373.208,438.956,376.565,434.814,376.565z"/>
</g>
<g>
	<path style="fill:#D9EAFC;" d="M385.794,302.603v-34.958c0-2.75,2.25-5,5-5h-19.842c-2.75,0-5,2.25-5,5v34.958c0,2.75,2.25,5,5,5
		h19.842C388.044,307.603,385.794,305.353,385.794,302.603z"/>
	<path style="fill:#D9EAFC;" d="M385.968,324.836c0-4.143,3.358-7.5,7.5-7.5h-19.842c-4.142,0-7.5,3.357-7.5,7.5s3.358,7.5,7.5,7.5
		h19.842C389.326,332.336,385.968,328.978,385.968,324.836z"/>
	<path style="fill:#D9EAFC;" d="M385.968,346.951c0-4.143,3.358-7.5,7.5-7.5h-19.842c-4.142,0-7.5,3.357-7.5,7.5s3.358,7.5,7.5,7.5
		h19.842C389.326,354.451,385.968,351.094,385.968,346.951z"/>
	<path style="fill:#D9EAFC;" d="M385.968,369.065c0-4.142,3.358-7.5,7.5-7.5h-19.842c-4.142,0-7.5,3.358-7.5,7.5
		c0,4.143,3.358,7.5,7.5,7.5h19.842C389.326,376.565,385.968,373.208,385.968,369.065z"/>
</g>
<path style="fill:#FFFFFF;" d="M269.06,41c0,2.75-2.25,5-5,5h-181c-2.75,0-5-2.25-5-5V27c0-2.75,2.25-5,5-5h181c2.75,0,5,2.25,5,5
	V41z"/>
<g>
</g>
<g>
</g>
<g>
</g>
<g>
</g>
<g>
</g>
<g>
</g>
<g>
</g>
<g>
</g>
<g>
</g>
<g>
</g>
<g>
</g>
<g>
</g>
<g>
</g>
<g>
</g>
<g>
</g>
</svg>
