<?xml version="1.0" encoding="iso-8859-1"?>
<!-- Generator: Adobe Illustrator 19.0.0, SVG Export Plug-In . SVG Version: 6.00 Build 0)  -->
<svg version="1.1" id="Capa_1" xmlns="http://www.w3.org/2000/svg" xmlns:xlink="http://www.w3.org/1999/xlink" x="0px" y="0px"
	 viewBox="0 0 512.001 512.001" style="enable-background:new 0 0 512.001 512.001;" xml:space="preserve">
<path style="fill:#FDCA74;" d="M481.758,162.168L481.758,162.168c-13.48-12.904-22.996-29.387-27.432-47.512l0,0
	c-10.169-41.558-46.115-71.72-88.807-74.517l0,0c-18.621-1.221-36.506-7.73-51.554-18.764l0,0
	c-34.502-25.298-81.427-25.298-115.928,0l0,0c-15.048,11.034-32.934,17.544-51.554,18.764l0,0
	c-42.692,2.798-78.638,32.96-88.807,74.517l0,0c-4.435,18.126-13.952,34.609-27.432,47.512l0,0
	C-0.662,191.752-8.81,237.964,10.113,276.335l0,0c8.254,16.736,11.559,35.479,9.527,54.029l0,0
	c-4.658,42.529,18.804,83.167,57.964,100.397l0,0c17.08,7.515,31.661,19.75,42.027,35.265l0,0
	c23.769,35.573,67.863,51.622,108.938,39.65l0,0c17.915-5.222,36.947-5.222,54.862,0l0,0c41.074,11.973,85.168-4.076,108.938-39.65
	l0,0c10.367-15.516,24.947-27.75,42.027-35.265l0,0c39.16-17.231,62.623-57.868,57.964-100.397l0,0
	c-2.031-18.549,1.273-37.294,9.527-54.029l0,0C520.812,237.963,512.664,191.752,481.758,162.168z"/>
<path style="fill:#E6B25B;" d="M160.84,466.027L160.84,466.027c-10.367-15.516-24.947-27.75-42.027-35.265l0,0
	c-39.16-17.231-62.623-57.868-57.964-100.397l0,0c2.032-18.549-1.273-37.294-9.527-54.029l0,0
	c-18.923-38.371-10.775-84.582,20.131-114.168l0,0c13.48-12.904,22.996-29.387,27.432-47.513l0,0
	c10.169-41.558,46.115-71.72,88.807-74.517l0,0c18.621-1.221,36.506-7.729,51.554-18.764l0,0
	c11.396-8.356,24.149-13.934,37.361-16.77c-26.787-5.75-55.462-0.172-78.568,16.77l0,0c-15.048,11.034-32.934,17.544-51.554,18.764
	l0,0c-42.692,2.798-78.638,32.961-88.807,74.517l0,0c-4.435,18.126-13.952,34.609-27.432,47.513l0,0
	c-30.905,29.585-39.054,75.797-20.131,114.168l0,0c8.254,16.736,11.559,35.479,9.527,54.029l0,0
	c-4.658,42.529,18.804,83.167,57.964,100.397l0,0c17.08,7.515,31.661,19.75,42.027,35.265l0,0
	c22.458,33.612,63.062,49.778,102.119,41.362C197.417,502.15,175.343,487.732,160.84,466.027z"/>
<g>
	<path style="fill:#3B484A;" d="M144.492,268.431c-4.267,0-7.726-3.459-7.726-7.726v-20.181c0-4.267,3.459-7.726,7.726-7.726
		s7.726,3.459,7.726,7.726v20.181C152.218,264.971,148.759,268.431,144.492,268.431z"/>
	<path style="fill:#3B484A;" d="M367.512,268.431c-4.267,0-7.726-3.459-7.726-7.726v-20.181c0-4.267,3.459-7.726,7.726-7.726
		c4.267,0,7.726,3.459,7.726,7.726v20.181C375.238,264.971,371.779,268.431,367.512,268.431z"/>
	<path style="fill:#3B484A;" d="M256.002,279.202c-12.957,0-25.109-5.401-33.34-14.818c-2.808-3.213-2.481-8.094,0.732-10.902
		c3.213-2.808,8.094-2.481,10.902,0.732c5.297,6.06,13.208,9.535,21.705,9.535c8.497,0,16.409-3.476,21.706-9.535
		c2.808-3.213,7.689-3.54,10.902-0.731c3.213,2.808,3.541,7.689,0.731,10.902C281.109,273.802,268.957,279.202,256.002,279.202z"/>
</g>
<path style="fill:#A8503C;" d="M368.428,104.245l-6.006-2.718c-10.837-4.903-23.394-4.156-33.575,1.996l-10.595,6.404
	c-12.879,7.784-19.584,22.737-16.828,37.532l0,0c3.186,17.105,18.114,29.51,35.513,29.51h16.602
	c19.95,0,36.124-16.174,36.124-36.124v-3.687C389.664,122.968,381.357,110.093,368.428,104.245z"/>
<path style="fill:#993E29;" d="M159.697,113.38l-2.958-1.577c-7.788-4.154-17.208-3.805-24.669,0.912l-5.952,3.764
	c-12.281,7.766-15.164,24.442-6.205,35.88l4.926,6.289c11.273,14.392,33.759,11.85,41.536-4.693l3.984-8.475
	C175.922,133.647,171.232,119.533,159.697,113.38z"/>
<path style="fill:#A8503C;" d="M253.576,404.832l-1.577,2.958c-4.154,7.788-3.805,17.208,0.912,24.669l3.764,5.952
	c7.766,12.281,24.442,15.164,35.88,6.205l6.289-4.926c14.392-11.273,11.85-33.759-4.693-41.536l-8.475-3.984
	C273.842,388.608,259.728,393.296,253.576,404.832z"/>
<g>
	<path style="fill:#993E29;" d="M376.981,371.493l0.88,2.891c2.317,7.612,8.542,13.393,16.304,15.142l6.192,1.395
		c12.777,2.877,25.242-5.913,26.823-18.914l0.868-7.147c1.987-16.357-13.963-29.07-29.464-23.481l-7.941,2.863
		C379.557,348.236,373.551,360.22,376.981,371.493z"/>
	<path style="fill:#993E29;" d="M159.345,357.475l-6.11-15.523c-4.627-11.754-15.587-19.811-28.186-20.72l-12.506-0.902
		c-10.153-0.732-20.072,3.286-26.853,10.88l-2.334,2.615c-7.631,8.545-10.253,20.451-6.922,31.412l3.817,12.557
		c3.947,12.986,15.478,22.206,29.016,23.197l17.134,1.254c13.711,1.003,26.595-6.643,32.284-19.157
		C162.362,374.99,162.601,365.748,159.345,357.475z"/>
</g>
<g>
</g>
<g>
</g>
<g>
</g>
<g>
</g>
<g>
</g>
<g>
</g>
<g>
</g>
<g>
</g>
<g>
</g>
<g>
</g>
<g>
</g>
<g>
</g>
<g>
</g>
<g>
</g>
<g>
</g>
</svg>
