<svg height="512pt" viewBox="0 0 512 512" width="512pt" xmlns="http://www.w3.org/2000/svg"><path d="M184.176 417.71h143.058v59.212H184.176zm0 0" fill="#5a5a5a"/><path d="M485.156 426.004H26.254C11.754 426.004 0 414.25 0 399.75V26.254C0 11.754 11.754 0 26.254 0h458.902c14.5 0 26.254 11.754 26.254 26.254V399.75c0 14.5-11.754 26.254-26.254 26.254zm0 0" fill="#ffd86e"/><path d="M511.414 26.258V399.75c0 14.5-11.754 26.254-26.254 26.254h-32.07c14.5 0 26.254-11.754 26.254-26.254V26.258c0-14.5-11.754-26.254-26.254-26.254h32.07c14.5 0 26.254 11.754 26.254 26.254zm0 0" fill="#ffb509"/><path d="M511.41 362.754H0v36.996c0 14.5 11.754 26.254 26.254 26.254h458.902c14.5 0 26.254-11.754 26.254-26.254zm0 0" fill="#838383"/><path d="M511.414 362.75v37c0 14.5-11.754 26.254-26.254 26.254h-32.07c14.5 0 26.254-11.754 26.254-26.254v-37zm0 0" fill="#5a5a5a"/><path d="M511.996 89.563H.57v-63.31C.57 11.754 12.324 0 26.82 0h458.922c14.5 0 26.254 11.754 26.254 26.254zm0 0" fill="#acacac"/><path d="M512 26.25v63.316h-32.656V26.25c0-14.492-11.754-26.246-26.258-26.246h32.66C500.246.004 512 11.758 512 26.25zm0 0" fill="#9c9c9c"/><path d="M373.594 511.426H137.816a5.146 5.146 0 01-5.144-5.145v-16.676c0-11.308 9.168-20.476 20.476-20.476h205.114c11.308 0 20.476 9.168 20.476 20.476v16.676a5.146 5.146 0 01-5.144 5.145zm0 0" fill="#838383"/><path d="M378.738 489.602v16.683a5.147 5.147 0 01-5.148 5.145h-18.164v-21.828c0-11.301-9.168-20.473-20.469-20.473h23.313c11.304 0 20.468 9.168 20.468 20.473zm0 0" fill="#5a5a5a"/><path d="M58.477 186.492a7.48 7.48 0 01-5.305-2.195l-24.2-24.203a7.497 7.497 0 010-10.606l24.2-24.199a7.502 7.502 0 0110.61 0 7.497 7.497 0 010 10.606l-18.9 18.898 18.9 18.898a7.497 7.497 0 01-5.305 12.801zm57.859 0a7.497 7.497 0 01-5.305-12.8l18.899-18.899-18.899-18.898a7.497 7.497 0 010-10.606 7.502 7.502 0 0110.61 0l24.199 24.2a7.497 7.497 0 010 10.605l-24.2 24.203a7.48 7.48 0 01-5.304 2.195zm-37.613.004c-.914 0-1.84-.168-2.743-.523a7.498 7.498 0 01-4.238-9.723l19.016-48.402c1.515-3.852 5.87-5.754 9.722-4.239a7.503 7.503 0 014.239 9.727l-19.016 48.398a7.5 7.5 0 01-6.98 4.762zm11.922 45.285h-52a7.5 7.5 0 110-15h52c4.144 0 7.5 3.356 7.5 7.5a7.5 7.5 0 01-7.5 7.5zm119.773 0h-91.426a7.5 7.5 0 110-15h91.426c4.144 0 7.5 3.356 7.5 7.5a7.5 7.5 0 01-7.5 7.5zM60.797 264.336H38.645a7.5 7.5 0 110-15h22.152a7.5 7.5 0 017.5 7.5 7.5 7.5 0 01-7.5 7.5zm134.871 0h-13.492a7.5 7.5 0 110-15h13.492a7.5 7.5 0 110 15zm-41.528 0H87.884a7.497 7.497 0 01-7.5-7.5 7.5 7.5 0 017.5-7.5h66.258a7.5 7.5 0 017.5 7.5 7.5 7.5 0 01-7.5 7.5zm91.274 0h-25.27a7.5 7.5 0 110-15h25.27a7.5 7.5 0 110 15zM197.04 160.762h-26.653a7.497 7.497 0 01-7.5-7.5 7.5 7.5 0 017.5-7.5h26.652a7.5 7.5 0 017.5 7.5c0 4.144-3.355 7.5-7.5 7.5zm192.464 0H226.887a7.5 7.5 0 110-15h162.617a7.5 7.5 0 110 15zM364.8 194.727h-65.866a7.497 7.497 0 01-7.5-7.5 7.5 7.5 0 017.5-7.5H364.8a7.5 7.5 0 017.5 7.5c0 4.144-3.356 7.5-7.5 7.5zm-90.57 0h-22.644a7.5 7.5 0 110-15h22.644a7.5 7.5 0 017.5 7.5c0 4.144-3.355 7.5-7.5 7.5zm-48.37 0h-55.477a7.5 7.5 0 110-15h55.476a7.5 7.5 0 110 15zm-71.622 101.894h-52a7.5 7.5 0 01-7.5-7.5c0-4.144 3.356-7.5 7.5-7.5h52c4.145 0 7.5 3.356 7.5 7.5a7.5 7.5 0 01-7.5 7.5zm-75.64 0H38.645a7.5 7.5 0 110-15h39.953a7.5 7.5 0 110 15zm169.902 0h-67.926a7.5 7.5 0 01-7.5-7.5c0-4.144 3.356-7.5 7.5-7.5H248.5c4.145 0 7.5 3.356 7.5 7.5a7.5 7.5 0 01-7.5 7.5zm0 0" fill="#838383"/><path d="M296.664 263.39h167.152v56.606H296.664zm0 87.481h167.152v52.492H296.664zm0 0" fill="#64dcfc"/><path d="M444.05 263.39h19.766v56.606h-19.765zm0 87.481h19.766v52.492h-19.765zm0 0" fill="#00d1fc"/><path d="M477.656 275.688H282.824a7.46 7.46 0 01-7.46-7.461V230.71a7.46 7.46 0 017.46-7.461h194.832a7.46 7.46 0 017.461 7.46v37.517a7.46 7.46 0 01-7.46 7.46zm0 84.121H282.824a7.46 7.46 0 01-7.46-7.461v-37.516a7.46 7.46 0 017.46-7.46h194.832a7.46 7.46 0 017.461 7.46v37.516a7.46 7.46 0 01-7.46 7.46zm0 84.121H282.824a7.46 7.46 0 01-7.46-7.461v-37.516a7.46 7.46 0 017.46-7.46h194.832a7.46 7.46 0 017.461 7.46v37.516a7.46 7.46 0 01-7.46 7.46zm0 0" fill="#0396fd"/><path d="M485.117 230.71v37.517a7.46 7.46 0 01-7.46 7.46h-17.313a7.458 7.458 0 007.46-7.46V230.71a7.458 7.458 0 00-7.46-7.461h17.312a7.46 7.46 0 017.461 7.46zm0 84.118v37.516a7.456 7.456 0 01-7.46 7.465h-17.313a7.454 7.454 0 007.46-7.465v-37.516a7.458 7.458 0 00-7.46-7.46h17.312a7.46 7.46 0 017.461 7.46zm0 84.129v37.516a7.46 7.46 0 01-7.46 7.46h-17.313a7.458 7.458 0 007.46-7.46v-37.516a7.453 7.453 0 00-7.46-7.46h17.312a7.455 7.455 0 017.461 7.46zm0 0" fill="#0077f0"/><path d="M340.363 256.969H303.22a7.5 7.5 0 110-15h37.148a7.5 7.5 0 11-.004 15zm116.899 0H404.82a7.5 7.5 0 110-15h52.438a7.5 7.5 0 017.5 7.5c0 4.144-3.356 7.5-7.496 7.5zm-78.66 0h-12.02a7.5 7.5 0 110-15h12.02a7.5 7.5 0 017.5 7.5 7.5 7.5 0 01-7.5 7.5zm-38.239 84.121H303.22a7.5 7.5 0 110-15h37.148a7.5 7.5 0 11-.004 15zm116.899 0H404.82a7.5 7.5 0 110-15h52.438a7.5 7.5 0 017.5 7.5c0 4.144-3.356 7.5-7.496 7.5zm-78.66 0h-12.02a7.5 7.5 0 110-15h12.02a7.5 7.5 0 017.5 7.5 7.5 7.5 0 01-7.5 7.5zm-38.239 84.12H303.22c-4.14 0-7.5-3.358-7.5-7.5 0-4.14 3.36-7.5 7.5-7.5h37.148c4.14 0 7.5 3.36 7.5 7.5 0 4.142-3.36 7.5-7.504 7.5zm116.899 0H404.82c-4.14 0-7.5-3.358-7.5-7.5 0-4.14 3.36-7.5 7.5-7.5h52.438a7.5 7.5 0 017.5 7.5c0 4.142-3.356 7.5-7.496 7.5zm-78.66 0h-12.02c-4.14 0-7.5-3.358-7.5-7.5 0-4.14 3.36-7.5 7.5-7.5h12.02a7.5 7.5 0 110 15zm0 0" fill="#e7e7e7"/><path d="M64.145 44.563c0 8.25-6.688 14.933-14.934 14.933-8.25 0-14.938-6.684-14.938-14.934 0-8.246 6.688-14.933 14.938-14.933 8.246 0 14.934 6.687 14.934 14.933zm0 0" fill="#ff5770"/><path d="M121.816 44.563c0 8.25-6.683 14.933-14.933 14.933-8.246 0-14.934-6.684-14.934-14.934 0-8.246 6.688-14.933 14.934-14.933 8.25 0 14.933 6.687 14.933 14.933zm0 0" fill="#ffd86e"/><path d="M179.492 44.563c0 8.25-6.687 14.933-14.933 14.933-8.25 0-14.934-6.684-14.934-14.934 0-8.246 6.684-14.933 14.934-14.933 8.246 0 14.933 6.687 14.933 14.933zm0 0" fill="#80e0dc"/><path d="M64.137 44.566c0 8.246-6.68 14.926-14.922 14.926a14.848 14.848 0 01-10.305-4.129c8.078-.175 14.586-6.781 14.586-14.914 0-4.258-1.781-8.09-4.633-10.804.114-.012.239-.012.352-.012 8.242 0 14.922 6.68 14.922 14.933zm0 0" fill="#ff435f"/><path d="M121.813 44.566c0 8.246-6.68 14.926-14.934 14.926a14.867 14.867 0 01-10.3-4.129c8.089-.175 14.593-6.781 14.593-14.914a14.88 14.88 0 00-4.629-10.804c.11-.012.223-.012.34-.012 8.254 0 14.93 6.68 14.93 14.933zm0 0" fill="#ffb509"/><path d="M179.492 44.566c0 8.246-6.691 14.926-14.933 14.926a14.87 14.87 0 01-10.305-4.129c8.09-.175 14.586-6.781 14.586-14.914 0-4.258-1.781-8.09-4.633-10.804.113-.012.238-.012.352-.012 8.242 0 14.933 6.68 14.933 14.933zm0 0" fill="#00a8b0"/></svg>