<svg xmlns="http://www.w3.org/2000/svg" viewBox="0 0 512 512"><circle cx="257.06" cy="267" r="245" fill="#ff9518"/><path fill="#445ea0" d="M162.51 388.5h94.35v40.586h-94.35z"/><path d="M300.979 449.3c0 2.75-2.25 5-5 5H123.386c-2.75 0-5-2.25-5-5v-16.209c0-2.75 2.25-5 5-5H295.98c2.75 0 5 2.25 5 5l-.001 16.209z" fill="#293d7c"/><path d="M138.228 449.3v-16.209c0-2.75 2.25-5 5-5h-19.842c-2.75 0-5 2.25-5 5V449.3c0 2.75 2.25 5 5 5h19.842c-2.75 0-5-2.25-5-5z" fill="#1a2b63"/><path d="M350.927 330.888H9.94v48.617c0 5.5 4.5 10 10 10h330.986v-58.617h.001z" fill="#293d7c"/><path d="M29.783 379.505v-48.617H9.94v48.617c0 5.5 4.5 10 10 10h19.842c-5.499 0-9.999-4.5-9.999-10z" fill="#1a2b63"/><path d="M399.822 105.259h-39.976v109.255c-5.18.02-9.389 4.252-9.389 9.454v88.713H57.407V105.259H19.543c-5.281 0-9.603 4.32-9.603 9.602v217.027h340.986v-107.92c0-5.214 4.242-9.456 9.456-9.456h49.041V114.86c.001-5.281-4.32-9.601-9.601-9.601z" fill="#445ea0"/><path d="M57.407 124.464h-23.26c-2.75 0-5 2.25-5 5v178.217c0 2.75 2.25 5 5 5h23.261l-.001-188.217zm327.812 0h-25.372v90.075c.179-.01.355-.027.536-.027h29.836v-85.048c0-2.75-2.25-5-5-5z" fill="#293d7c"/><path d="M48.989 307.681V129.464c0-2.75 2.25-5 5-5H34.147c-2.75 0-5 2.25-5 5v178.217c0 2.75 2.25 5 5 5h19.842c-2.75 0-5-2.25-5-5z" fill="#1a2b63"/><circle cx="209.68" cy="361.01" r="12.153" fill="#445ea0"/><path d="M167.197 65.513a4.466 4.466 0 014.453-4.451h114.807V5.266c0-2.897-2.369-5.266-5.265-5.266H62.172c-2.896 0-5.265 2.369-5.265 5.266v307.415h110.29V65.513z" fill="#c3ddf4"/><path d="M82.014 0H62.172c-2.896 0-5.265 2.369-5.265 5.266v307.415H76.75V5.266C76.75 2.369 79.119 0 82.014 0z" fill="#aec1ed"/><path d="M350.927 223.968c0-5.202 4.223-9.435 9.42-9.454V64.513a4.466 4.466 0 00-4.452-4.451H170.65a4.466 4.466 0 00-4.453 4.451v248.168h184.729v-88.713h.001z" fill="#fff"/><path d="M190.493 60.062H170.65a4.466 4.466 0 00-4.453 4.451v248.168h19.842V64.513a4.467 4.467 0 014.454-4.451z" fill="#d9eafc"/><path d="M208.817 160.439a7.5 7.5 0 01-5.643-2.56l-11.999-13.707a7.5 7.5 0 1111.286-9.881l6.356 7.261 10.106-11.545a7.499 7.499 0 0110.583-.703 7.5 7.5 0 01.703 10.584l-15.749 17.991a7.5 7.5 0 01-5.643 2.56z" fill="#0f9390"/><path d="M329.727 141.591H249.4c-4.142 0-7.5-3.357-7.5-7.5s3.358-7.5 7.5-7.5h80.327a7.5 7.5 0 010 15zm0 20.562H249.4c-4.142 0-7.5-3.357-7.5-7.5s3.358-7.5 7.5-7.5h80.327c4.142 0 7.5 3.357 7.5 7.5s-3.358 7.5-7.5 7.5z" fill="#52bbef"/><path d="M208.817 222.124a7.502 7.502 0 01-5.643-2.559l-11.999-13.706a7.5 7.5 0 0111.286-9.881l6.356 7.261 10.106-11.545a7.5 7.5 0 0111.286 9.881l-15.749 17.99a7.498 7.498 0 01-5.643 2.559z" fill="#0f9390"/><path d="M329.727 203.276H249.4c-4.142 0-7.5-3.357-7.5-7.5s3.358-7.5 7.5-7.5h80.327c4.142 0 7.5 3.357 7.5 7.5s-3.358 7.5-7.5 7.5zm0 20.563H249.4c-4.142 0-7.5-3.357-7.5-7.5s3.358-7.5 7.5-7.5h80.327a7.5 7.5 0 010 15z" fill="#52bbef"/><path d="M208.817 283.81a7.503 7.503 0 01-5.643-2.56l-11.999-13.707a7.5 7.5 0 1111.286-9.881l6.356 7.261 10.106-11.544a7.5 7.5 0 0110.583-.703 7.5 7.5 0 01.703 10.584l-15.749 17.99a7.5 7.5 0 01-5.643 2.56z" fill="#0f9390"/><path d="M329.727 264.962H249.4c-4.142 0-7.5-3.357-7.5-7.5s3.358-7.5 7.5-7.5h80.327a7.5 7.5 0 010 15zM300.2 285.524h-50.801c-4.142 0-7.5-3.357-7.5-7.5s3.358-7.5 7.5-7.5H300.2c4.142 0 7.5 3.357 7.5 7.5s-3.358 7.5-7.5 7.5z" fill="#52bbef"/><path d="M144.543 77.86H86.022c-4.142 0-7.5-3.357-7.5-7.5s3.358-7.5 7.5-7.5h58.522a7.5 7.5 0 11-.001 15zm0 20.843H86.022c-4.142 0-7.5-3.357-7.5-7.5s3.358-7.5 7.5-7.5h58.522a7.5 7.5 0 11-.001 15zm0 20.843H86.022c-4.142 0-7.5-3.357-7.5-7.5s3.358-7.5 7.5-7.5h58.522a7.5 7.5 0 11-.001 15zm0 39.492H86.022c-4.142 0-7.5-3.357-7.5-7.5s3.358-7.5 7.5-7.5h58.522a7.5 7.5 0 11-.001 15zm0 20.844H86.022c-4.142 0-7.5-3.357-7.5-7.5s3.358-7.5 7.5-7.5h58.522a7.5 7.5 0 11-.001 15zm0 20.844H86.022c-4.142 0-7.5-3.357-7.5-7.5s3.358-7.5 7.5-7.5h58.522a7.5 7.5 0 11-.001 15zm0 39.492H86.022c-4.142 0-7.5-3.357-7.5-7.5s3.358-7.5 7.5-7.5h58.522a7.5 7.5 0 11-.001 15zm0 20.842H86.022c-4.142 0-7.5-3.357-7.5-7.5s3.358-7.5 7.5-7.5h58.522a7.5 7.5 0 11-.001 15zm0 20.843H86.022c-4.142 0-7.5-3.357-7.5-7.5s3.358-7.5 7.5-7.5h58.522a7.5 7.5 0 11-.001 15zM303.698 97.499h-80.853c-4.142 0-7.5-3.357-7.5-7.5s3.358-7.5 7.5-7.5h80.853c4.142 0 7.5 3.357 7.5 7.5s-3.358 7.5-7.5 7.5z" fill="#445ea0"/><path d="M474.868 443.844c0 5.751-4.705 10.456-10.456 10.456H360.383c-5.751 0-10.456-4.705-10.456-10.456V223.968c0-5.751 4.705-10.456 10.456-10.456h104.029c5.751 0 10.456 4.705 10.456 10.456v219.876z" fill="#aec1ed"/><path d="M369.769 443.844V223.968c0-5.751 4.705-10.456 10.456-10.456h-19.842c-5.751 0-10.456 4.705-10.456 10.456v219.876c0 5.751 4.705 10.456 10.456 10.456h19.842c-5.751 0-10.456-4.705-10.456-10.456z" fill="#85a0dd"/><path d="M391.485 413.15v11.786c0 2.75 2.25 5 5 5h31.824c2.75 0 5-2.25 5-5V413.15h-41.824z" fill="#445ea0"/><path fill="#91e0e8" d="M349.93 247.39h124.94v166.76H349.93z"/><path fill="#5dc1d8" d="M349.93 247.39h19.842v166.76H349.93z"/><path d="M430.172 237.729h-35.55c-4.142 0-7.5-3.357-7.5-7.5s3.358-7.5 7.5-7.5h35.55c4.142 0 7.5 3.357 7.5 7.5s-3.358 7.5-7.5 7.5z" fill="#445ea0"/><path d="M459.009 302.603c0 2.75-2.25 5-5 5h-83.058c-2.75 0-5-2.25-5-5v-34.958c0-2.75 2.25-5 5-5h83.058c2.75 0 5 2.25 5 5v34.958zm-24.195 29.733h-61.188c-4.142 0-7.5-3.357-7.5-7.5s3.358-7.5 7.5-7.5h61.188a7.5 7.5 0 010 15zm0 22.115h-61.188c-4.142 0-7.5-3.357-7.5-7.5s3.358-7.5 7.5-7.5h61.188c4.142 0 7.5 3.357 7.5 7.5s-3.358 7.5-7.5 7.5zm0 22.114h-61.188a7.5 7.5 0 010-15h61.188a7.5 7.5 0 010 15z" fill="#eef6ff"/><path d="M385.794 302.603v-34.958c0-2.75 2.25-5 5-5h-19.842c-2.75 0-5 2.25-5 5v34.958c0 2.75 2.25 5 5 5h19.842c-2.75 0-5-2.25-5-5zm.174 22.233a7.5 7.5 0 017.5-7.5h-19.842c-4.142 0-7.5 3.357-7.5 7.5s3.358 7.5 7.5 7.5h19.842a7.5 7.5 0 01-7.5-7.5zm0 22.115a7.5 7.5 0 017.5-7.5h-19.842c-4.142 0-7.5 3.357-7.5 7.5s3.358 7.5 7.5 7.5h19.842a7.5 7.5 0 01-7.5-7.5zm0 22.114a7.5 7.5 0 017.5-7.5h-19.842a7.5 7.5 0 000 15h19.842a7.5 7.5 0 01-7.5-7.5z" fill="#d9eafc"/><path d="M269.06 41c0 2.75-2.25 5-5 5h-181c-2.75 0-5-2.25-5-5V27c0-2.75 2.25-5 5-5h181c2.75 0 5 2.25 5 5v14z" fill="#fff"/></svg>