<svg xmlns="http://www.w3.org/2000/svg" viewBox="0 0 512 512"><path fill="#fff" d="M48 107.984h416v256H48z"/><path fill="#ff4f19" d="M48 107.984h416v64H48z"/><path d="M459.133 75.984H52.852C32.531 75.984 16 92.477 16 112.75v291.234c0 4.422 3.578 8 8 8h464c4.422 0 8-3.578 8-8V112.75c0-20.273-16.539-36.766-36.867-36.766zM48 355.984v-240a8 8 0 018-8h400a8 8 0 018 8v240a8 8 0 01-8 8H56a8 8 0 01-8-8z" fill="#5c546a"/><path d="M504 395.984H8c-4.422 0-8 3.578-8 8 0 17.664 14.367 32.031 32.031 32.031h447.937c17.664 0 32.031-14.367 32.031-32.031a7.994 7.994 0 00-7.999-8z" fill="#b9bbc1"/><path d="M144 147.984H88c-4.422 0-8-3.578-8-8 0-4.422 3.578-8 8-8h56c4.422 0 8 3.578 8 8 0 4.422-3.578 8-8 8z" fill="#ffd200"/><path d="M288 147.984h-8c-4.422 0-8-3.578-8-8 0-4.422 3.578-8 8-8h8c4.422 0 8 3.578 8 8 0 4.422-3.578 8-8 8zm40 0h-8c-4.422 0-8-3.578-8-8 0-4.422 3.578-8 8-8h8c4.422 0 8 3.578 8 8 0 4.422-3.578 8-8 8zm40 0h-8c-4.422 0-8-3.578-8-8 0-4.422 3.578-8 8-8h8c4.422 0 8 3.578 8 8 0 4.422-3.578 8-8 8zm40 0h-8c-4.422 0-8-3.578-8-8 0-4.422 3.578-8 8-8h8c4.422 0 8 3.578 8 8 0 4.422-3.578 8-8 8z" fill="#fff"/><path d="M224 339.984H88a8 8 0 01-8-8v-128a8 8 0 018-8h136a8 8 0 018 8v128a8 8 0 01-8 8z" fill="#53dcff"/><path d="M416 211.984H264c-4.422 0-8-3.578-8-8 0-4.422 3.578-8 8-8h152c4.422 0 8 3.578 8 8 0 4.422-3.578 8-8 8z" fill="#ff4f19"/><path d="M328 275.984h-64c-4.422 0-8-3.578-8-8s3.578-8 8-8h64c4.422 0 8 3.578 8 8s-3.578 8-8 8zm0 32h-64c-4.422 0-8-3.578-8-8s3.578-8 8-8h64c4.422 0 8 3.578 8 8s-3.578 8-8 8zm0 32h-64c-4.422 0-8-3.578-8-8s3.578-8 8-8h64c4.422 0 8 3.578 8 8s-3.578 8-8 8zm96-64h-64c-4.422 0-8-3.578-8-8s3.578-8 8-8h64c4.422 0 8 3.578 8 8s-3.578 8-8 8zm0 32h-64c-4.422 0-8-3.578-8-8s3.578-8 8-8h64c4.422 0 8 3.578 8 8s-3.578 8-8 8zm0 32h-64c-4.422 0-8-3.578-8-8s3.578-8 8-8h64c4.422 0 8 3.578 8 8s-3.578 8-8 8z" fill="#b9bbc1"/><path d="M368 243.984H264c-4.422 0-8-3.578-8-8 0-4.422 3.578-8 8-8h104c4.422 0 8 3.578 8 8 0 4.422-3.578 8-8 8z" fill="#e9001e"/><path d="M224 411.984h64c8.836 0 16-7.164 16-16h-96c0 8.837 7.163 16 16 16z" fill="#8b8996"/></svg>