<svg xmlns="http://www.w3.org/2000/svg" viewBox="0 0 512.001 512.001"><path d="M481.758 162.168a98.034 98.034 0 01-27.432-47.512c-10.169-41.558-46.115-71.72-88.807-74.517a98.03 98.03 0 01-51.554-18.764c-34.502-25.298-81.427-25.298-115.928 0a98.025 98.025 0 01-51.554 18.764c-42.692 2.798-78.638 32.96-88.807 74.517a98.017 98.017 0 01-27.432 47.512C-.662 191.752-8.81 237.964 10.113 276.335a98.016 98.016 0 019.527 54.029c-4.658 42.529 18.804 83.167 57.964 100.397a98.022 98.022 0 0142.027 35.265c23.769 35.573 67.863 51.622 108.938 39.65a98.021 98.021 0 0154.862 0c41.074 11.973 85.168-4.076 108.938-39.65a98.021 98.021 0 0142.027-35.265c39.16-17.231 62.623-57.868 57.964-100.397a98.025 98.025 0 019.527-54.029c18.925-38.372 10.777-84.583-20.129-114.167z" fill="#fdca74"/><path d="M160.84 466.027a98.021 98.021 0 00-42.027-35.265c-39.16-17.231-62.623-57.868-57.964-100.397a98.016 98.016 0 00-9.527-54.029c-18.923-38.371-10.775-84.582 20.131-114.168a98.032 98.032 0 0027.432-47.513c10.169-41.558 46.115-71.72 88.807-74.517a98.021 98.021 0 0051.554-18.764 97.796 97.796 0 0137.361-16.77c-26.787-5.75-55.462-.172-78.568 16.77a98.025 98.025 0 01-51.554 18.764c-42.692 2.798-78.638 32.961-88.807 74.517a98.024 98.024 0 01-27.432 47.513C-.659 191.753-8.808 237.965 10.115 276.336a98.016 98.016 0 019.527 54.029c-4.658 42.529 18.804 83.167 57.964 100.397a98.022 98.022 0 0142.027 35.265c22.458 33.612 63.062 49.778 102.119 41.362-24.335-5.239-46.409-19.657-60.912-41.362z" fill="#e6b25b"/><path d="M144.492 268.431a7.726 7.726 0 01-7.726-7.726v-20.181a7.726 7.726 0 1115.452 0v20.181a7.727 7.727 0 01-7.726 7.726zm223.02 0a7.726 7.726 0 01-7.726-7.726v-20.181a7.726 7.726 0 1115.452 0v20.181a7.727 7.727 0 01-7.726 7.726zm-111.51 10.771c-12.957 0-25.109-5.401-33.34-14.818a7.726 7.726 0 1111.634-10.17c5.297 6.06 13.208 9.535 21.705 9.535 8.497 0 16.409-3.476 21.706-9.535a7.725 7.725 0 0110.902-.731 7.724 7.724 0 01.731 10.902c-8.231 9.417-20.383 14.817-33.338 14.817z" fill="#3b484a"/><path d="M368.428 104.245l-6.006-2.718a36.127 36.127 0 00-33.575 1.996l-10.595 6.404a36.125 36.125 0 00-16.828 37.532c3.186 17.105 18.114 29.51 35.513 29.51h16.602c19.95 0 36.124-16.174 36.124-36.124v-3.687a36.12 36.12 0 00-21.235-32.913z" fill="#a8503c"/><path d="M159.697 113.38l-2.958-1.577a24.547 24.547 0 00-24.669.912l-5.952 3.764c-12.281 7.766-15.164 24.442-6.205 35.88l4.926 6.289c11.273 14.392 33.759 11.85 41.536-4.693l3.984-8.475c5.563-11.833.873-25.947-10.662-32.1z" fill="#993e29"/><path d="M253.576 404.832l-1.577 2.958a24.547 24.547 0 00.912 24.669l3.764 5.952c7.766 12.281 24.442 15.164 35.88 6.205l6.289-4.926c14.392-11.273 11.85-33.759-4.693-41.536l-8.475-3.984c-11.834-5.562-25.948-.874-32.1 10.662z" fill="#a8503c"/><path d="M376.981 371.493l.88 2.891a22.126 22.126 0 0016.304 15.142l6.192 1.395c12.777 2.877 25.242-5.913 26.823-18.914l.868-7.147c1.987-16.357-13.963-29.07-29.464-23.481l-7.941 2.863c-11.086 3.994-17.092 15.978-13.662 27.251zm-217.636-14.018l-6.11-15.523a32.83 32.83 0 00-28.186-20.72l-12.506-.902a32.834 32.834 0 00-26.853 10.88l-2.334 2.615a32.828 32.828 0 00-6.922 31.412l3.817 12.557a32.832 32.832 0 0029.016 23.197l17.134 1.254a32.833 32.833 0 0032.284-19.157 32.852 32.852 0 00.66-25.613z" fill="#993e29"/></svg>